<svg id="Layer_1" data-name="Layer 1" xmlns="http://www.w3.org/2000/svg" viewBox="0 0 89.33 27.56"><defs><style>.cls-1{fill:#72c9f1;}</style></defs><title>unum.logotype</title><g id="Symbol_1_0_Layer0_0_FILL" data-name="Symbol 1 0 Layer0 0 FILL"><path class="cls-1" d="M54.6,47v9.16a7.7,7.7,0,0,0,1.64,5q2.19,2.55,6.83,2.55t6.83-2.55a7.57,7.57,0,0,0,1.69-5V47H66.44v8.75q0,3.51-3.37,3.51t-3.42-3.51V47H54.6m24.05,7.33Q78.65,51,82,51t3.42,3.42v8.7H90.5V54a7.29,7.29,0,0,0-1.64-4.92Q86.72,46.45,82,46.45t-6.88,2.64A7.43,7.43,0,0,0,73.55,54v9.07h5.1v-8.7M86.13,40.3a4.2,4.2,0,0,0-1.14-3,4,4,0,0,0-3-1.18,3.92,3.92,0,0,0-3,1.18,4.18,4.18,0,0,0,0,5.92,3.92,3.92,0,0,0,3,1.18,4,4,0,0,0,3-1.18,4.1,4.1,0,0,0,1.14-3M109.5,47h-5.1v8.75q0,3.51-3.37,3.51T97.7,55.78V47H92.5v9.16a7.57,7.57,0,0,0,1.69,5q2.14,2.55,6.83,2.55t6.88-2.55a7.84,7.84,0,0,0,1.59-5V47M104,37.33a4,4,0,0,0-3-1.18,3.92,3.92,0,0,0-3,1.18,4.07,4.07,0,0,0,0,5.92,3.92,3.92,0,0,0,3,1.18,4,4,0,0,0,4.15-4.15,4.12,4.12,0,0,0-1.18-3m17.9,0a4.18,4.18,0,0,0,0,5.92,4.18,4.18,0,0,0,5.83,0,4.18,4.18,0,0,0,0-5.92,4.18,4.18,0,0,0-5.83,0m14,10.8a8.19,8.19,0,0,0-5.38-1.69,7.58,7.58,0,0,0-4.37,1.18A3.64,3.64,0,0,0,124.85,49a6.79,6.79,0,0,0-5.79-2.6,8.19,8.19,0,0,0-5.38,1.69,7,7,0,0,0-2.14,5.56v9.38h5V53.69q0-3,2.87-3a2.62,2.62,0,0,1,3,3v9.38h5V53.69q0-3,2.87-3t2.87,3v9.38h5V53.69A6.91,6.91,0,0,0,135.92,48.13Z" transform="translate(-54.6 -36.15)"/></g><path class="cls-1" d="M143.93,48.41a2,2,0,1,1-2-2A2,2,0,0,1,143.93,48.41Zm-3.54,0A1.52,1.52,0,0,0,141.93,50a1.51,1.51,0,0,0,1.5-1.56A1.52,1.52,0,1,0,140.4,48.41Zm1.21,1h-0.46v-2a4,4,0,0,1,.76-0.06,1.23,1.23,0,0,1,.68.14,0.55,0.55,0,0,1,.19.43,0.5,0.5,0,0,1-.41.46v0a0.58,0.58,0,0,1,.36.48,1.51,1.51,0,0,0,.14.49h-0.49a1.68,1.68,0,0,1-.16-0.48,0.35,0.35,0,0,0-.41-0.31h-0.22v0.79Zm0-1.12h0.22c0.25,0,.46-0.08.46-0.29s-0.13-.3-0.42-0.3a1.07,1.07,0,0,0-.25,0v0.56Z" transform="translate(-54.6 -36.15)"/></svg>